<mxfile host="app.diagrams.net" modified="2023-06-10T12:44:30.691Z" agent="Mozilla/5.0 (X11; Ubuntu; Linux x86_64; rv:109.0) Gecko/20100101 Firefox/114.0" etag="amvqJjGjUUfz6Au4Gssi" version="21.3.8" type="github">
  <diagram name="Page-1" id="sqpYiGoDLPp1gYUDhb8U">
    <mxGraphModel dx="2147" dy="565" grid="1" gridSize="10" guides="1" tooltips="1" connect="1" arrows="1" fold="1" page="1" pageScale="1" pageWidth="1000" pageHeight="700" math="0" shadow="0">
      <root>
        <mxCell id="0" />
        <mxCell id="1" parent="0" />
        <mxCell id="Gli23Xaz9RJpN-XAZbF4-21" style="edgeStyle=orthogonalEdgeStyle;rounded=0;orthogonalLoop=1;jettySize=auto;html=1;exitX=0.5;exitY=1;exitDx=0;exitDy=0;entryX=0;entryY=0.5;entryDx=0;entryDy=0;" edge="1" parent="1" source="Gli23Xaz9RJpN-XAZbF4-14" target="Gli23Xaz9RJpN-XAZbF4-17">
          <mxGeometry relative="1" as="geometry" />
        </mxCell>
        <mxCell id="Gli23Xaz9RJpN-XAZbF4-14" value="SS Platform" style="rounded=1;whiteSpace=wrap;html=1;" vertex="1" parent="1">
          <mxGeometry x="-760" y="320" width="120" height="60" as="geometry" />
        </mxCell>
        <mxCell id="Gli23Xaz9RJpN-XAZbF4-22" value="" style="edgeStyle=orthogonalEdgeStyle;rounded=0;orthogonalLoop=1;jettySize=auto;html=1;" edge="1" parent="1" source="Gli23Xaz9RJpN-XAZbF4-16" target="Gli23Xaz9RJpN-XAZbF4-14">
          <mxGeometry relative="1" as="geometry" />
        </mxCell>
        <mxCell id="Gli23Xaz9RJpN-XAZbF4-16" value="Users" style="ellipse;whiteSpace=wrap;html=1;aspect=fixed;" vertex="1" parent="1">
          <mxGeometry x="-950" y="310" width="80" height="80" as="geometry" />
        </mxCell>
        <mxCell id="Gli23Xaz9RJpN-XAZbF4-23" style="edgeStyle=orthogonalEdgeStyle;rounded=0;orthogonalLoop=1;jettySize=auto;html=1;entryX=0.5;entryY=1;entryDx=0;entryDy=0;" edge="1" parent="1" source="Gli23Xaz9RJpN-XAZbF4-17" target="Gli23Xaz9RJpN-XAZbF4-18">
          <mxGeometry relative="1" as="geometry" />
        </mxCell>
        <mxCell id="Gli23Xaz9RJpN-XAZbF4-17" value="Community &lt;br&gt;contract" style="rounded=1;whiteSpace=wrap;html=1;" vertex="1" parent="1">
          <mxGeometry x="-540" y="490" width="120" height="60" as="geometry" />
        </mxCell>
        <mxCell id="Gli23Xaz9RJpN-XAZbF4-25" value="" style="edgeStyle=orthogonalEdgeStyle;rounded=0;orthogonalLoop=1;jettySize=auto;html=1;" edge="1" parent="1" source="Gli23Xaz9RJpN-XAZbF4-18" target="Gli23Xaz9RJpN-XAZbF4-24">
          <mxGeometry relative="1" as="geometry" />
        </mxCell>
        <mxCell id="Gli23Xaz9RJpN-XAZbF4-18" value="Project&lt;br&gt;Contract" style="rounded=1;whiteSpace=wrap;html=1;" vertex="1" parent="1">
          <mxGeometry x="-170" y="320" width="120" height="60" as="geometry" />
        </mxCell>
        <mxCell id="Gli23Xaz9RJpN-XAZbF4-28" style="edgeStyle=orthogonalEdgeStyle;rounded=0;orthogonalLoop=1;jettySize=auto;html=1;entryX=1;entryY=0.5;entryDx=0;entryDy=0;" edge="1" parent="1" source="Gli23Xaz9RJpN-XAZbF4-24" target="Gli23Xaz9RJpN-XAZbF4-14">
          <mxGeometry relative="1" as="geometry" />
        </mxCell>
        <mxCell id="Gli23Xaz9RJpN-XAZbF4-29" style="edgeStyle=orthogonalEdgeStyle;rounded=0;orthogonalLoop=1;jettySize=auto;html=1;" edge="1" parent="1" source="Gli23Xaz9RJpN-XAZbF4-24">
          <mxGeometry relative="1" as="geometry">
            <mxPoint x="-480" y="480" as="targetPoint" />
            <Array as="points">
              <mxPoint x="-480" y="350" />
              <mxPoint x="-480" y="480" />
            </Array>
          </mxGeometry>
        </mxCell>
        <mxCell id="Gli23Xaz9RJpN-XAZbF4-32" value="" style="edgeStyle=orthogonalEdgeStyle;rounded=0;orthogonalLoop=1;jettySize=auto;html=1;" edge="1" parent="1" source="Gli23Xaz9RJpN-XAZbF4-24">
          <mxGeometry relative="1" as="geometry">
            <mxPoint x="-330" y="250" as="targetPoint" />
          </mxGeometry>
        </mxCell>
        <mxCell id="Gli23Xaz9RJpN-XAZbF4-24" value="Token&lt;br&gt;Contract" style="rounded=1;whiteSpace=wrap;html=1;" vertex="1" parent="1">
          <mxGeometry x="-390" y="320" width="120" height="60" as="geometry" />
        </mxCell>
        <mxCell id="Gli23Xaz9RJpN-XAZbF4-33" value="&lt;font style=&quot;font-size: 16px;&quot;&gt;Burn Token&lt;br&gt;&lt;/font&gt;" style="text;html=1;strokeColor=none;fillColor=none;align=center;verticalAlign=middle;whiteSpace=wrap;rounded=0;" vertex="1" parent="1">
          <mxGeometry x="-375" y="200" width="90" height="40" as="geometry" />
        </mxCell>
        <mxCell id="Gli23Xaz9RJpN-XAZbF4-35" value="&lt;div align=&quot;left&quot;&gt;- Registration&lt;br&gt;- Verification&lt;/div&gt;" style="text;html=1;strokeColor=none;fillColor=none;align=left;verticalAlign=middle;whiteSpace=wrap;rounded=0;" vertex="1" parent="1">
          <mxGeometry x="-860" y="360" width="90" height="30" as="geometry" />
        </mxCell>
        <mxCell id="Gli23Xaz9RJpN-XAZbF4-36" value="&lt;div align=&quot;left&quot;&gt;- Create community&lt;br&gt;- Start project&lt;br&gt;&lt;/div&gt;" style="text;html=1;strokeColor=none;fillColor=none;align=left;verticalAlign=middle;whiteSpace=wrap;rounded=0;" vertex="1" parent="1">
          <mxGeometry x="-680" y="530" width="140" height="30" as="geometry" />
        </mxCell>
        <mxCell id="Gli23Xaz9RJpN-XAZbF4-37" value="Vote" style="text;html=1;strokeColor=none;fillColor=none;align=left;verticalAlign=middle;whiteSpace=wrap;rounded=0;" vertex="1" parent="1">
          <mxGeometry x="-230" y="320" width="90" height="30" as="geometry" />
        </mxCell>
        <mxCell id="Gli23Xaz9RJpN-XAZbF4-38" value="- Update reputation points" style="text;html=1;strokeColor=none;fillColor=none;align=left;verticalAlign=middle;whiteSpace=wrap;rounded=0;" vertex="1" parent="1">
          <mxGeometry x="-470" y="420" width="160" height="30" as="geometry" />
        </mxCell>
        <mxCell id="Gli23Xaz9RJpN-XAZbF4-39" value="- Update reputation points" style="text;html=1;strokeColor=none;fillColor=none;align=left;verticalAlign=middle;whiteSpace=wrap;rounded=0;" vertex="1" parent="1">
          <mxGeometry x="-620" y="330" width="160" height="30" as="geometry" />
        </mxCell>
      </root>
    </mxGraphModel>
  </diagram>
</mxfile>
